<?xml version="1.0" standalone="no"?>
<!DOCTYPE svg PUBLIC "-//W3C//DTD SVG 20010904//EN"
 "http://www.w3.org/TR/2001/REC-SVG-20010904/DTD/svg10.dtd">
<svg version="1.0" xmlns="http://www.w3.org/2000/svg"
 width="1024.000000pt" height="1024.000000pt" viewBox="0 0 1024.000000 1024.000000"
 preserveAspectRatio="xMidYMid meet">
<metadata>
Created by potrace 1.11, written by Peter Selinger 2001-2013
</metadata>
<g transform="translate(0.000000,1024.000000) scale(0.100000,-0.100000)"
fill="#000000" stroke="none">
<path d="M0 5120 l0 -5120 5120 0 5120 0 0 5120 0 5120 -5120 0 -5120 0 0
-5120z m7516 4059 c844 -83 1424 -503 1618 -1172 23 -80 44 -186 61 -309 l6
-48 -579 0 -579 0 -13 62 c-6 34 -27 104 -45 156 -89 249 -268 415 -520 482
-103 28 -331 38 -442 20 -375 -60 -645 -347 -757 -802 -40 -165 -56 -317 -56
-547 0 -239 11 -365 45 -537 57 -283 161 -500 309 -649 104 -103 209 -165 363
-212 80 -24 102 -27 253 -27 138 1 178 4 244 22 321 88 507 316 600 735 l6 27
578 0 578 0 -8 -72 c-32 -279 -126 -543 -269 -759 -85 -128 -281 -322 -414
-411 -297 -197 -645 -310 -1079 -349 -161 -15 -524 -6 -661 16 -499 79 -887
271 -1195 592 -321 334 -503 764 -551 1303 -16 182 -6 515 20 686 77 508 280
921 604 1230 336 322 775 514 1297 567 84 9 486 6 586 -4z m-4416 -79 c215
-12 337 -25 459 -52 379 -81 704 -304 880 -606 135 -232 199 -545 173 -845
-31 -342 -145 -599 -362 -817 -171 -172 -385 -291 -637 -354 -211 -53 -382
-66 -960 -73 l-473 -6 0 -743 0 -744 -575 0 -575 0 0 2125 0 2125 948 0 c521
0 1026 -5 1122 -10z m-660 -6680 l0 -160 -250 0 -250 0 0 -620 0 -620 -200 0
-200 0 0 620 0 620 -250 0 -250 0 0 160 0 160 700 0 700 0 0 -160z m560 -160
l0 -320 305 0 305 0 2 318 3 317 200 0 200 0 0 -775 0 -775 -200 0 -200 0 -3
303 -2 302 -305 0 -305 0 0 -305 0 -305 -200 0 -200 0 0 780 0 780 200 0 200
0 0 -320z m2234 296 c155 -36 254 -105 308 -214 32 -64 33 -71 33 -187 0 -102
-3 -127 -22 -167 -35 -75 -106 -144 -195 -187 l-78 -38 40 -18 c22 -10 61 -40
85 -66 67 -72 91 -137 115 -314 15 -110 45 -215 80 -285 l30 -60 -218 0 -219
0 -26 98 c-15 53 -33 142 -41 197 -18 118 -37 176 -72 223 -49 63 -75 72 -211
72 l-123 0 0 -295 0 -295 -200 0 -200 0 0 781 0 781 423 -5 c340 -4 435 -8
491 -21z m1006 -756 l0 -780 -200 0 -200 0 0 780 0 780 200 0 200 0 0 -780z
m700 170 l0 -610 390 0 390 0 0 -170 0 -170 -590 0 -590 0 0 780 0 780 200 0
200 0 0 -610z m1400 0 l0 -610 390 0 390 0 0 -170 0 -170 -590 0 -590 0 0 780
0 780 200 0 200 0 0 -610z"/>
<path d="M2182 7734 l3 -519 390 1 c330 1 401 4 460 18 185 45 287 131 347
292 18 50 22 81 22 199 1 121 -2 149 -22 207 -55 158 -158 249 -334 294 -51
13 -139 17 -466 21 l-402 5 2 -518z"/>
<path d="M4720 2086 l0 -176 143 0 c161 0 203 9 252 51 39 35 58 101 46 164
-11 56 -30 83 -76 108 -35 19 -59 22 -202 25 l-163 4 0 -176z"/>
</g>
</svg>
